<svg xmlns="http://www.w3.org/2000/svg" viewBox="0 0 1200 900" role="img" aria-labelledby="title desc">
  <title id="title">轻夹克细节图</title>
  <desc id="desc">浅灰轻夹克的领口、门襟、白色内搭和斜挎包肩带细节示意图，用于说明校园 cleanfit 外套的版型与材质判断。</desc>
  <defs>
    <linearGradient id="bg" x1="0" y1="0" x2="1" y2="1">
      <stop offset="0%" stop-color="#edf1f4"/>
      <stop offset="100%" stop-color="#d6dde4"/>
    </linearGradient>
    <filter id="shadow" x="-20%" y="-20%" width="140%" height="140%">
      <feDropShadow dx="0" dy="8" stdDeviation="12" flood-color="#9aa6b2" flood-opacity="0.28"/>
    </filter>
  </defs>
  <rect width="1200" height="900" fill="url(#bg)"/>
  <g filter="url(#shadow)">
    <rect x="256" y="124" width="688" height="652" rx="56" fill="#bac5cd"/>
    <path d="M372 150l184 210-84 62-180-218z" fill="#a4b0ba"/>
    <path d="M828 150L644 360l84 62 180-218z" fill="#a4b0ba"/>
    <rect x="490" y="246" width="220" height="534" rx="28" fill="#f6f4ef"/>
    <line x1="600" y1="198" x2="600" y2="782" stroke="#8f99a3" stroke-width="6"/>
    <circle cx="600" cy="320" r="6" fill="#8f99a3"/>
    <circle cx="600" cy="384" r="6" fill="#8f99a3"/>
    <circle cx="600" cy="448" r="6" fill="#8f99a3"/>
    <circle cx="600" cy="512" r="6" fill="#8f99a3"/>
    <path d="M433 512c98 28 236 26 334 0" fill="none" stroke="#95a1ab" stroke-width="4" opacity="0.45"/>
    <path d="M842 388c-54 38-84 92-92 148" fill="none" stroke="#667486" stroke-width="12" stroke-linecap="round"/>
  </g>
</svg>
